@startuml

' hide the spot
 hide circle
' avoid problems with angled crows feet
skinparam linetype ortho
left to right direction
hide empty members

entity "Channels" as channels {
     CH1 : Headset
	--
     CH2 : Pulpit
	--
     CH3 : Unused
	--
     CH4 : Unused
	--
     CH5 : Unused
	--
     CH6 : Unused
	--
     CH7 : Audience L
	--
     CH8 : Audience R
	--
 
	--
     CH9 : Mic 1
	--
     CH10 : Mic 2
	--
     CH11 : Mic 3
	--
     CH12 : Mic 4
	--
     CH13 : Mic 5
	--
     CH14 : Mic 6
	--
     CH15 : DrumTB
	--
     CH16 : Unused
	--
 
	--
     CH17 : Instrument 1
	--
     CH18 : Instrument 2
	--
     CH19 : Instrument 3
	--
     CH20 : Instrument 4
	--
     CH21 : Instrument 5
	--
     CH22 : Unused
	--
     CH23 : Keyboard L
	--
     CH24 : Keyboard R
	--
 
	--
     CH25 : Kick
	--
     CH26 : Snare
	--
     CH27 : Tom
	--
     CH28 : Tom
	--
     CH29 : Tom
	--
     CH30 : Tom
	--
     CH31 : Overhead L
	--
     CH32 : Overhead R
}

entity "Busses" as busses {
  Mix1 : Live L
	--
  Mix2 : Live R
	--
  Mix3 : Drum Mon
	--
  Mix4 : Audience Gate Side Chain
	--
  Mix5 : Drumroom talkback Side Cha
	--
  Mix6 : Talkback
	--
  Mix7 : Pulpit Feedback Fixer
	--
  Mix8 : Unused
	--
  Mix9 : Stage Feedback Fixer
	--
  Mix10 : Mains Mon
	--
  Mix11 : Unused
	--
  Mix12 : Unused
	--
  Mix13 : Effects input 1
	--
  Mix14 : Effects input 2
	--
  Mix15 : Effects input 3
	--
  Mix16 : Effects input 4
}

entity "P16" as p16 {
CH1 : Mic1
--
CH2 : Mic2
--
CH3 : Mic3
--
CH4 : Mic4
--
CH5 : Mic5
--
CH6 : Mic6 (Keys)
--
CH7 : Inst1
--
CH8 : Inst2
--
CH9 : Inst3
--
CH10 : Inst4
--
CH11 : Inst5
--
CH12 : Keys
--
CH13 : Mains
--
CH14 : Talkback
--
CH15 : Drums
--
CH16 : Unused
}


channels::CH9 ---> p16::CH9
channels::CH10 ---> p16::CH2
channels::CH11 ---> p16::CH3
channels::CH12 ---> p16::CH4
channels::CH13 ---> p16::CH5
channels::CH14 ---> p16::CH6
channels::CH17 ---> p16::CH7
channels::CH18 ---> p16::CH8
channels::CH19 ---> p16::CH9
channels::CH20 ---> p16::CH10
channels::CH21 ---> p16::CH11
channels::CH23 ---> p16::CH12
busses::Mix10 ---> p16::CH13
busses::Mix6 ---> p16::CH14
busses::Mix3 ---> p16::CH15

entity "LR" as lr {
}

entity "Matrix" as matrix {
    Mtx1 : Front L
	--
    Mtx2 : Front R
	--
    Mtx3 : Fill L
	--
    Mtx4 : Fill R
	--
    Mtx5 : Coffee Shop
	--
    Mtx6 : Outside
}


@enduml